# xmcd
#
# Track frame offsets: 
#        183
#        12535
#        27055
#        36730
#        46150
#        67433
#        78680
#        90313
#        101515
#        112878
#        129398
#        146368
#        156003
#        176573
#        191013
#        202593
#
# Disc length: 2843 seconds
#
# Revision: 0
# Processed by: cddbd v1.5.1PL0 Copyright (c) Steve Scherf et al.
# Submitted via: ExactAudioCopy v0.95a5
#
DISCID=d20b1910
DTITLE=Charles Aznavour - Preferences
DYEAR=1900
DGENRE=Pop
TTITLE0=Pur faire une jam
TTITLE1=Viens au creux de mon epaule
TTITLE2=Quand tu vas revenir
TTITLE3=Rentre chez toi et pleure
TTITLE4=Sa jeunesse ...
TTITLE5=On ne sait jamais
TTITLE6=Jezebel
TTITLE7=Je t'aime comme ca
TTITLE8=Sur ma vie
TTITLE9=Ay i mourir pour toi
TTITLE10=L'amour a fleur de coeur
TTITLE11=C'est merveilleux l'amour
TTITLE12=J'aime Paris au mois de Mai
TTITLE13=Ce sacre piano
TTITLE14=Je hais les dimanches
TTITLE15=A t'regarder
EXTD=
EXTT0=
EXTT1=
EXTT2=
EXTT3=
EXTT4=
EXTT5=
EXTT6=
EXTT7=
EXTT8=
EXTT9=
EXTT10=
EXTT11=
EXTT12=
EXTT13=
EXTT14=
EXTT15=
PLAYORDER=
